Kali Salwaar (2002)
 
http://www.shotpix.com/images/74946284526336412276.jpg


INFO

[code]Rip Information


Format                                   : AVI
Format/Info                              : Audio Video Interleave
File size                                : 611 MiB
Duration                                 : 2h 3mn
Overall bit rate                         : 694 Kbps

[/code]

[code]Video


Codec ID                                 : XVID
Codec ID/Hint                            : XviD
Duration                                 : 2h 3mn
Bit rate                                 : 557 Kbps
Width                                    : 688 pixels
Height                                   : 400 pixels
Display aspect ratio                     : 16:9
Frame rate                               : 29.970 fps
Color space                              : YUV
Chroma subsampling                       : 4:2:0
Bit depth                                : 8 bits
Scan type                                : Progressive
Compression mode                         : Lossy
Bits/(Pixel*Frame)                       : 0.068
Stream size                              : 490 MiB (80%)
Writing library                          : XviD 1.2.1 (UTC 2008-12-04)

[/code]


[code]Audio


Format                                   : AC-3
Format/Info                              : Audio Coding 3
Mode extension                           : CM (complete main)
Format settings, Endianness              : Big
Codec ID                                 : 2000
Duration                                 : 2h 3mn
Bit rate mode                            : Constant
Bit rate                                 : 128 Kbps
Channel(s)                               : 2 channels
Channel positions                        : Front: L R
Sampling rate                            : 48.0 KHz
Bit depth                                : 16 bits
Compression mode                         : Lossy
Stream size                              : 113 MiB (18%)

[/code]



SCREENSHOTS
 
http://www.shotpix.com/images/91877920913398245644.png
 
http://www.shotpix.com/images/92701472205752043244.png
 
http://www.shotpix.com/images/73807521207859145740.png
 
http://www.shotpix.com/images/54922680621768058543.png
 
http://www.shotpix.com/images/23166996716360497773.png
 
http://www.shotpix.com/images/43202738333423681261.png
 
http://www.shotpix.com/images/74394807911465819395.png
 
http://www.shotpix.com/images/26876316257078634148.png
 
http://www.shotpix.com/images/75750170788359099522.png
 
http://www.shotpix.com/images/66012140280964447880.png
 
http://www.shotpix.com/images/12139111416692150154.png